<svg width="592" height="82" viewBox="0 0 592 82" fill="none" xmlns="http://www.w3.org/2000/svg">
<g filter="url(#filter0_f_1_197)">
<path d="M46.4381 48.9103C46.1906 47.1873 45.8094 45.4764 45.2981 43.793C44.7778 42.1131 44.1383 40.4573 43.3615 38.8514C42.572 37.2525 41.6651 35.6966 40.6227 34.2165C40.3662 33.8444 40.0934 33.4808 39.8224 33.1172C39.5424 32.7589 39.2606 32.4022 38.9661 32.0559C38.379 31.3581 37.7702 30.6757 37.1234 30.0245C36.4821 29.3697 35.8137 28.7356 35.1181 28.1309C34.7749 27.8242 34.4154 27.533 34.0595 27.2366C33.6964 26.9506 33.3332 26.6629 32.9593 26.3889C31.4707 25.2879 29.899 24.2799 28.255 23.3995C26.6146 22.5104 24.9128 21.7316 23.1695 21.0545L20.4524 20L20.3783 22.8947L20.2772 26.7387L20.2591 27.4692C20.2465 27.9138 20.2392 28.3583 20.2284 28.8028C20.2049 29.8832 20.185 30.9635 20.1652 32.0438L20.0839 36.6201L20.0351 41.1947C20.0188 42.7196 20.0026 44.2444 20.0062 45.7693C20.0062 47.2941 19.9936 48.819 20.0044 50.3439C20.0206 53.3936 20.0423 56.4433 20.1254 59.4947L20.1941 62L22.7142 61.6864H22.716L22.8588 61.6657L22.9726 61.6468L23.1876 61.6089L23.5977 61.5279C23.8668 61.471 24.1288 61.4107 24.3907 61.347C24.911 61.2178 25.4205 61.0747 25.9245 60.9197C26.9326 60.6078 27.9135 60.2425 28.8728 59.8307C30.7896 59.0054 32.6124 57.9871 34.2907 56.7845C35.9708 55.5818 37.5046 54.1931 38.8397 52.6527C40.1747 51.1123 41.3074 49.4255 42.227 47.6542L42.7455 46.6515C42.5323 46.0984 42.3046 45.5505 42.0644 45.0112C41.7392 44.2737 41.3887 43.5501 41.0166 42.8471L39.2624 46.169C38.3645 47.6835 37.2968 49.093 36.0738 50.3559C34.8489 51.6189 33.4705 52.7354 31.9765 53.6865C30.4843 54.6393 28.8746 55.4285 27.1999 56.0453C26.4159 56.333 25.6174 56.5846 24.8117 56.7931C24.8478 54.6445 24.8641 52.4959 24.8749 50.3473C24.8857 48.8224 24.8731 47.2976 24.8731 45.7727C24.8749 44.2479 24.8604 42.723 24.8442 41.1981L24.7954 36.6236L24.7141 32.0438C24.7051 31.5528 24.6942 31.06 24.6852 30.5689C24.6726 29.8797 24.6599 29.1905 24.6437 28.4996C24.6364 28.155 24.6292 27.8121 24.6202 27.4675L24.5768 25.7996C25.2109 26.0598 25.8414 26.3303 26.4611 26.6198C28.0021 27.3383 29.4889 28.1584 30.9142 29.0682C32.3324 29.9865 33.7 30.9859 34.97 32.0955C36.2472 33.1982 37.4233 34.4112 38.5235 35.6897C39.6255 36.9682 40.6173 38.3414 41.5098 39.7767C42.4112 41.2085 43.2061 42.7109 43.8908 44.2651C44.5827 45.8175 45.1699 47.4199 45.6432 49.0619C45.8835 49.8821 46.0948 50.7109 46.2719 51.55C46.4543 52.3873 46.6043 53.2333 46.7 54.0897C46.8084 52.3684 46.6729 50.6333 46.4381 48.9103ZM22.165 57.3031C22.1614 57.3048 22.1632 57.3048 22.165 57.3031V57.3031Z" fill="#4A90AE"/>
<path d="M48.6134 24.4402C48.7634 23.0687 48.8952 21.5921 49 20L43.6291 27.0006L45.4844 26.0633C44.9443 30.9549 44.2433 33.1414 43.6291 35.2434C44.1711 36.1429 44.6841 37.0784 45.1611 38.0451C45.2713 38.2725 45.3778 38.4999 45.4826 38.7308C45.8945 37.7073 47.6379 33.3499 48.6098 24.4815H48.6116L48.6134 24.4402Z" fill="#4A90AE"/>
</g>
<path d="M46.4381 48.9103C46.1906 47.1873 45.8094 45.4764 45.2981 43.793C44.7778 42.1131 44.1383 40.4573 43.3615 38.8514C42.572 37.2525 41.6651 35.6966 40.6227 34.2165C40.3662 33.8444 40.0934 33.4808 39.8224 33.1172C39.5424 32.7589 39.2606 32.4022 38.9661 32.0559C38.379 31.3581 37.7702 30.6757 37.1234 30.0245C36.4821 29.3697 35.8136 28.7356 35.1181 28.1309C34.7749 27.8242 34.4154 27.533 34.0595 27.2366C33.6964 26.9506 33.3332 26.6629 32.9593 26.3889C31.4707 25.2879 29.899 24.2799 28.255 23.3995C26.6146 22.5104 24.9128 21.7316 23.1695 21.0545L20.4524 20L20.3783 22.8947L20.2772 26.7387L20.2591 27.4692C20.2465 27.9138 20.2392 28.3583 20.2284 28.8028C20.2049 29.8832 20.185 30.9635 20.1652 32.0438L20.0839 36.6201L20.0351 41.1947C20.0188 42.7196 20.0026 44.2444 20.0062 45.7693C20.0062 47.2941 19.9936 48.819 20.0044 50.3439C20.0206 53.3936 20.0423 56.4433 20.1254 59.4947L20.1941 62L22.7142 61.6864H22.716L22.8588 61.6657L22.9726 61.6468L23.1876 61.6089L23.5976 61.5279C23.8668 61.471 24.1288 61.4107 24.3907 61.347C24.911 61.2178 25.4205 61.0747 25.9245 60.9197C26.9326 60.6078 27.9135 60.2425 28.8728 59.8307C30.7896 59.0054 32.6124 57.9871 34.2907 56.7845C35.9708 55.5818 37.5046 54.1931 38.8396 52.6527C40.1747 51.1123 41.3074 49.4255 42.227 47.6542L42.7454 46.6515C42.5323 46.0984 42.3046 45.5505 42.0644 45.0112C41.7392 44.2737 41.3887 43.5501 41.0166 42.8471L39.2624 46.169C38.3645 47.6835 37.2968 49.093 36.0738 50.3559C34.8489 51.6189 33.4705 52.7354 31.9765 53.6865C30.4843 54.6393 28.8746 55.4285 27.1999 56.0453C26.4159 56.333 25.6174 56.5846 24.8117 56.7931C24.8478 54.6445 24.8641 52.4959 24.8749 50.3473C24.8857 48.8224 24.8731 47.2976 24.8731 45.7727C24.8749 44.2479 24.8604 42.723 24.8442 41.1981L24.7954 36.6236L24.7141 32.0438C24.7051 31.5528 24.6942 31.06 24.6852 30.5689C24.6726 29.8797 24.6599 29.1905 24.6437 28.4996C24.6364 28.155 24.6292 27.8121 24.6202 27.4675L24.5768 25.7996C25.2109 26.0598 25.8414 26.3303 26.4611 26.6198C28.0021 27.3383 29.4889 28.1584 30.9142 29.0682C32.3324 29.9865 33.7 30.9859 34.97 32.0955C36.2472 33.1982 37.4233 34.4112 38.5235 35.6897C39.6255 36.9682 40.6173 38.3414 41.5098 39.7767C42.4112 41.2085 43.2061 42.7109 43.8908 44.2651C44.5827 45.8175 45.1699 47.4199 45.6432 49.0619C45.8834 49.8821 46.0948 50.7109 46.2719 51.55C46.4543 52.3873 46.6043 53.2333 46.7 54.0897C46.8084 52.3684 46.6729 50.6333 46.4381 48.9103ZM22.165 57.3031C22.1614 57.3048 22.1632 57.3048 22.165 57.3031V57.3031Z" fill="white"/>
<path d="M48.6134 24.4402C48.7633 23.0687 48.8952 21.5921 49 20L43.6291 27.0006L45.4844 26.0633C44.9443 30.9549 44.2433 33.1414 43.6291 35.2434C44.1711 36.1429 44.6841 37.0784 45.1611 38.0451C45.2713 38.2725 45.3778 38.4999 45.4826 38.7308C45.8945 37.7073 47.6379 33.3499 48.6098 24.4815H48.6116L48.6134 24.4402Z" fill="white"/>
<path d="M65.032 47L70.152 35.8H71.32L76.44 47H75.192L70.488 36.488H70.968L66.264 47H65.032ZM67.048 44.008L67.4 43.048H73.912L74.264 44.008H67.048ZM78.0528 47V35.128H79.1888V47H78.0528ZM82.5416 47V37.544C82.5416 36.7973 82.7603 36.1947 83.1976 35.736C83.635 35.2773 84.2643 35.048 85.0856 35.048C85.4056 35.048 85.715 35.0907 86.0136 35.176C86.3123 35.2613 86.563 35.3947 86.7656 35.576L86.3816 36.424C86.2216 36.2853 86.035 36.184 85.8216 36.12C85.6083 36.0453 85.379 36.008 85.1336 36.008C84.6536 36.008 84.2856 36.1413 84.0296 36.408C83.7736 36.6747 83.6456 37.0693 83.6456 37.592V38.872L83.6776 39.4V47H82.5416ZM81.0376 39.544V38.6H86.2376V39.544H81.0376ZM92.8793 47V45.144L92.8313 44.84V41.736C92.8313 41.0213 92.6286 40.472 92.2233 40.088C91.8286 39.704 91.2366 39.512 90.4473 39.512C89.9033 39.512 89.3859 39.6027 88.8953 39.784C88.4046 39.9653 87.9886 40.2053 87.6473 40.504L87.1353 39.656C87.5619 39.2933 88.0739 39.016 88.6713 38.824C89.2686 38.6213 89.8979 38.52 90.5593 38.52C91.6473 38.52 92.4846 38.792 93.0713 39.336C93.6686 39.8693 93.9673 40.6853 93.9673 41.784V47H92.8793ZM89.9833 47.08C89.3539 47.08 88.8046 46.9787 88.3353 46.776C87.8766 46.5627 87.5246 46.2747 87.2793 45.912C87.0339 45.5387 86.9113 45.112 86.9113 44.632C86.9113 44.1947 87.0126 43.8 87.2153 43.448C87.4286 43.0853 87.7699 42.7973 88.2393 42.584C88.7193 42.36 89.3593 42.248 90.1593 42.248H93.0553V43.096H90.1913C89.3806 43.096 88.8153 43.24 88.4953 43.528C88.1859 43.816 88.0312 44.1733 88.0312 44.6C88.0312 45.08 88.2179 45.464 88.5913 45.752C88.9646 46.04 89.4873 46.184 90.1593 46.184C90.7993 46.184 91.3486 46.04 91.8073 45.752C92.2766 45.4533 92.6179 45.0267 92.8313 44.472L93.0873 45.256C92.8739 45.8107 92.5006 46.2533 91.9673 46.584C91.4446 46.9147 90.7833 47.08 89.9833 47.08ZM101.48 47V35.8H106.04C107.235 35.8 108.28 36.04 109.176 36.52C110.083 36.9893 110.787 37.6453 111.288 38.488C111.79 39.3307 112.04 40.3013 112.04 41.4C112.04 42.4987 111.79 43.4693 111.288 44.312C110.787 45.1547 110.083 45.816 109.176 46.296C108.28 46.7653 107.235 47 106.04 47H101.48ZM102.664 45.976H105.976C106.968 45.976 107.827 45.784 108.552 45.4C109.288 45.0053 109.859 44.4667 110.264 43.784C110.67 43.0907 110.872 42.296 110.872 41.4C110.872 40.4933 110.67 39.6987 110.264 39.016C109.859 38.3333 109.288 37.8 108.552 37.416C107.827 37.0213 106.968 36.824 105.976 36.824H102.664V45.976ZM114.459 47V38.6H115.595V47H114.459ZM115.035 36.744C114.8 36.744 114.603 36.664 114.443 36.504C114.283 36.344 114.203 36.152 114.203 35.928C114.203 35.704 114.283 35.5173 114.443 35.368C114.603 35.208 114.8 35.128 115.035 35.128C115.27 35.128 115.467 35.2027 115.627 35.352C115.787 35.5013 115.867 35.688 115.867 35.912C115.867 36.1467 115.787 36.344 115.627 36.504C115.478 36.664 115.28 36.744 115.035 36.744ZM122.34 50.184C121.572 50.184 120.836 50.072 120.132 49.848C119.428 49.624 118.857 49.304 118.42 48.888L118.996 48.024C119.391 48.376 119.876 48.6533 120.452 48.856C121.039 49.0693 121.657 49.176 122.308 49.176C123.375 49.176 124.159 48.9253 124.66 48.424C125.161 47.9333 125.412 47.1653 125.412 46.12V44.024L125.572 42.584L125.46 41.144V38.6H126.548V45.976C126.548 47.4267 126.191 48.488 125.476 49.16C124.772 49.8427 123.727 50.184 122.34 50.184ZM122.132 46.68C121.332 46.68 120.612 46.5093 119.972 46.168C119.332 45.816 118.825 45.3307 118.452 44.712C118.089 44.0933 117.908 43.384 117.908 42.584C117.908 41.784 118.089 41.08 118.452 40.472C118.825 39.8533 119.332 39.3733 119.972 39.032C120.612 38.6907 121.332 38.52 122.132 38.52C122.879 38.52 123.551 38.6747 124.148 38.984C124.745 39.2933 125.22 39.752 125.572 40.36C125.924 40.968 126.1 41.7093 126.1 42.584C126.1 43.4587 125.924 44.2 125.572 44.808C125.22 45.416 124.745 45.88 124.148 46.2C123.551 46.52 122.879 46.68 122.132 46.68ZM122.244 45.672C122.863 45.672 123.412 45.544 123.892 45.288C124.372 45.0213 124.751 44.6587 125.028 44.2C125.305 43.7307 125.444 43.192 125.444 42.584C125.444 41.976 125.305 41.4427 125.028 40.984C124.751 40.5253 124.372 40.168 123.892 39.912C123.412 39.6453 122.863 39.512 122.244 39.512C121.636 39.512 121.087 39.6453 120.596 39.912C120.116 40.168 119.737 40.5253 119.46 40.984C119.193 41.4427 119.06 41.976 119.06 42.584C119.06 43.192 119.193 43.7307 119.46 44.2C119.737 44.6587 120.116 45.0213 120.596 45.288C121.087 45.544 121.636 45.672 122.244 45.672ZM129.709 47V38.6H130.845V47H129.709ZM130.285 36.744C130.05 36.744 129.853 36.664 129.693 36.504C129.533 36.344 129.453 36.152 129.453 35.928C129.453 35.704 129.533 35.5173 129.693 35.368C129.853 35.208 130.05 35.128 130.285 35.128C130.52 35.128 130.717 35.2027 130.877 35.352C131.037 35.5013 131.117 35.688 131.117 35.912C131.117 36.1467 131.037 36.344 130.877 36.504C130.728 36.664 130.53 36.744 130.285 36.744ZM136.662 47.08C135.873 47.08 135.265 46.8667 134.838 46.44C134.411 46.0133 134.198 45.4107 134.198 44.632V36.744H135.334V44.568C135.334 45.0587 135.457 45.4373 135.702 45.704C135.958 45.9707 136.321 46.104 136.79 46.104C137.291 46.104 137.707 45.96 138.038 45.672L138.438 46.488C138.214 46.6907 137.942 46.84 137.622 46.936C137.313 47.032 136.993 47.08 136.662 47.08ZM132.694 39.544V38.6H137.894V39.544H132.694ZM145.77 47V45.144L145.722 44.84V41.736C145.722 41.0213 145.519 40.472 145.114 40.088C144.719 39.704 144.127 39.512 143.338 39.512C142.794 39.512 142.277 39.6027 141.786 39.784C141.295 39.9653 140.879 40.2053 140.538 40.504L140.026 39.656C140.453 39.2933 140.965 39.016 141.562 38.824C142.159 38.6213 142.789 38.52 143.45 38.52C144.538 38.52 145.375 38.792 145.962 39.336C146.559 39.8693 146.858 40.6853 146.858 41.784V47H145.77ZM142.874 47.08C142.245 47.08 141.695 46.9787 141.226 46.776C140.767 46.5627 140.415 46.2747 140.17 45.912C139.925 45.5387 139.802 45.112 139.802 44.632C139.802 44.1947 139.903 43.8 140.106 43.448C140.319 43.0853 140.661 42.7973 141.13 42.584C141.61 42.36 142.25 42.248 143.05 42.248H145.946V43.096H143.082C142.271 43.096 141.706 43.24 141.386 43.528C141.077 43.816 140.922 44.1733 140.922 44.6C140.922 45.08 141.109 45.464 141.482 45.752C141.855 46.04 142.378 46.184 143.05 46.184C143.69 46.184 144.239 46.04 144.698 45.752C145.167 45.4533 145.509 45.0267 145.722 44.472L145.978 45.256C145.765 45.8107 145.391 46.2533 144.858 46.584C144.335 46.9147 143.674 47.08 142.874 47.08ZM149.943 47V35.128H151.079V47H149.943ZM156.876 47L161.996 35.8H163.164L168.284 47H167.036L162.332 36.488H162.812L158.108 47H156.876ZM158.892 44.008L159.244 43.048H165.756L166.108 44.008H158.892ZM173.402 50.184C172.634 50.184 171.898 50.072 171.194 49.848C170.49 49.624 169.92 49.304 169.482 48.888L170.058 48.024C170.453 48.376 170.938 48.6533 171.514 48.856C172.101 49.0693 172.72 49.176 173.37 49.176C174.437 49.176 175.221 48.9253 175.722 48.424C176.224 47.9333 176.474 47.1653 176.474 46.12V44.024L176.634 42.584L176.522 41.144V38.6H177.61V45.976C177.61 47.4267 177.253 48.488 176.538 49.16C175.834 49.8427 174.789 50.184 173.402 50.184ZM173.194 46.68C172.394 46.68 171.674 46.5093 171.034 46.168C170.394 45.816 169.888 45.3307 169.514 44.712C169.152 44.0933 168.97 43.384 168.97 42.584C168.97 41.784 169.152 41.08 169.514 40.472C169.888 39.8533 170.394 39.3733 171.034 39.032C171.674 38.6907 172.394 38.52 173.194 38.52C173.941 38.52 174.613 38.6747 175.21 38.984C175.808 39.2933 176.282 39.752 176.634 40.36C176.986 40.968 177.162 41.7093 177.162 42.584C177.162 43.4587 176.986 44.2 176.634 44.808C176.282 45.416 175.808 45.88 175.21 46.2C174.613 46.52 173.941 46.68 173.194 46.68ZM173.306 45.672C173.925 45.672 174.474 45.544 174.954 45.288C175.434 45.0213 175.813 44.6587 176.09 44.2C176.368 43.7307 176.506 43.192 176.506 42.584C176.506 41.976 176.368 41.4427 176.09 40.984C175.813 40.5253 175.434 40.168 174.954 39.912C174.474 39.6453 173.925 39.512 173.306 39.512C172.698 39.512 172.149 39.6453 171.658 39.912C171.178 40.168 170.8 40.5253 170.522 40.984C170.256 41.4427 170.122 41.976 170.122 42.584C170.122 43.192 170.256 43.7307 170.522 44.2C170.8 44.6587 171.178 45.0213 171.658 45.288C172.149 45.544 172.698 45.672 173.306 45.672ZM184.34 47.08C183.465 47.08 182.697 46.8987 182.036 46.536C181.374 46.1627 180.857 45.656 180.484 45.016C180.11 44.3653 179.924 43.624 179.924 42.792C179.924 41.96 180.1 41.224 180.452 40.584C180.814 39.944 181.305 39.4427 181.924 39.08C182.553 38.7067 183.257 38.52 184.036 38.52C184.825 38.52 185.524 38.7013 186.132 39.064C186.75 39.416 187.236 39.9173 187.588 40.568C187.94 41.208 188.116 41.9493 188.116 42.792C188.116 42.8453 188.11 42.904 188.1 42.968C188.1 43.0213 188.1 43.08 188.1 43.144H180.788V42.296H187.492L187.044 42.632C187.044 42.024 186.91 41.4853 186.644 41.016C186.388 40.536 186.036 40.1627 185.588 39.896C185.14 39.6293 184.622 39.496 184.036 39.496C183.46 39.496 182.942 39.6293 182.484 39.896C182.025 40.1627 181.668 40.536 181.412 41.016C181.156 41.496 181.028 42.0453 181.028 42.664V42.84C181.028 43.48 181.166 44.0453 181.444 44.536C181.732 45.016 182.126 45.3947 182.628 45.672C183.14 45.9387 183.721 46.072 184.372 46.072C184.884 46.072 185.358 45.9813 185.796 45.8C186.244 45.6187 186.628 45.3413 186.948 44.968L187.588 45.704C187.214 46.152 186.745 46.4933 186.18 46.728C185.625 46.9627 185.012 47.08 184.34 47.08ZM194.716 38.52C195.398 38.52 195.996 38.6533 196.508 38.92C197.03 39.176 197.436 39.5707 197.724 40.104C198.022 40.6373 198.172 41.3093 198.172 42.12V47H197.036V42.232C197.036 41.3467 196.812 40.68 196.364 40.232C195.926 39.7733 195.308 39.544 194.508 39.544C193.91 39.544 193.388 39.6667 192.94 39.912C192.502 40.1467 192.161 40.4933 191.916 40.952C191.681 41.4 191.564 41.944 191.564 42.584V47H190.428V38.6H191.516V40.904L191.34 40.472C191.606 39.864 192.033 39.3893 192.62 39.048C193.206 38.696 193.905 38.52 194.716 38.52ZM204.728 47.08C203.896 47.08 203.15 46.8987 202.488 46.536C201.838 46.1627 201.326 45.656 200.952 45.016C200.579 44.3653 200.392 43.624 200.392 42.792C200.392 41.9493 200.579 41.208 200.952 40.568C201.326 39.928 201.838 39.4267 202.488 39.064C203.15 38.7013 203.896 38.52 204.728 38.52C205.443 38.52 206.088 38.6587 206.664 38.936C207.24 39.2133 207.694 39.6293 208.024 40.184L207.176 40.76C206.888 40.3333 206.531 40.0187 206.104 39.816C205.678 39.6133 205.214 39.512 204.712 39.512C204.115 39.512 203.576 39.6507 203.096 39.928C202.616 40.1947 202.238 40.5733 201.96 41.064C201.683 41.5547 201.544 42.1307 201.544 42.792C201.544 43.4533 201.683 44.0293 201.96 44.52C202.238 45.0107 202.616 45.3947 203.096 45.672C203.576 45.9387 204.115 46.072 204.712 46.072C205.214 46.072 205.678 45.9707 206.104 45.768C206.531 45.5653 206.888 45.256 207.176 44.84L208.024 45.416C207.694 45.96 207.24 46.376 206.664 46.664C206.088 46.9413 205.443 47.08 204.728 47.08ZM210.195 50.184C209.8 50.184 209.422 50.12 209.059 49.992C208.707 49.864 208.403 49.672 208.147 49.416L208.675 48.568C208.888 48.7707 209.118 48.9253 209.363 49.032C209.619 49.1493 209.902 49.208 210.211 49.208C210.584 49.208 210.904 49.1013 211.171 48.888C211.448 48.6853 211.71 48.3227 211.955 47.8L212.499 46.568L212.627 46.392L216.083 38.6H217.203L212.995 48.008C212.76 48.552 212.499 48.984 212.211 49.304C211.934 49.624 211.63 49.848 211.299 49.976C210.968 50.1147 210.6 50.184 210.195 50.184ZM212.435 47.24L208.563 38.6H209.747L213.171 46.312L212.435 47.24Z" fill="url(#paint0_linear_1_197)"/>
<path d="M221.406 43.064V42.248H229.406V43.064H221.406ZM239.546 47.08C238.82 47.08 238.164 46.9147 237.578 46.584C236.991 46.2427 236.522 45.7573 236.17 45.128C235.828 44.488 235.658 43.7093 235.658 42.792C235.658 41.8747 235.828 41.1013 236.17 40.472C236.511 39.832 236.975 39.3467 237.562 39.016C238.148 38.6853 238.81 38.52 239.546 38.52C240.346 38.52 241.06 38.7013 241.69 39.064C242.33 39.416 242.831 39.9173 243.194 40.568C243.556 41.208 243.738 41.9493 243.738 42.792C243.738 43.6453 243.556 44.392 243.194 45.032C242.831 45.672 242.33 46.1733 241.69 46.536C241.06 46.8987 240.346 47.08 239.546 47.08ZM235.21 50.104V38.6H236.298V41.128L236.186 42.808L236.346 44.504V50.104H235.21ZM239.466 46.072C240.063 46.072 240.596 45.9387 241.066 45.672C241.535 45.3947 241.908 45.0107 242.186 44.52C242.463 44.0187 242.602 43.4427 242.602 42.792C242.602 42.1413 242.463 41.5707 242.186 41.08C241.908 40.5893 241.535 40.2053 241.066 39.928C240.596 39.6507 240.063 39.512 239.466 39.512C238.868 39.512 238.33 39.6507 237.85 39.928C237.38 40.2053 237.007 40.5893 236.73 41.08C236.463 41.5707 236.33 42.1413 236.33 42.792C236.33 43.4427 236.463 44.0187 236.73 44.52C237.007 45.0107 237.38 45.3947 237.85 45.672C238.33 45.9387 238.868 46.072 239.466 46.072ZM251.348 47V45.144L251.3 44.84V41.736C251.3 41.0213 251.097 40.472 250.692 40.088C250.297 39.704 249.705 39.512 248.916 39.512C248.372 39.512 247.854 39.6027 247.364 39.784C246.873 39.9653 246.457 40.2053 246.116 40.504L245.604 39.656C246.03 39.2933 246.542 39.016 247.14 38.824C247.737 38.6213 248.366 38.52 249.028 38.52C250.116 38.52 250.953 38.792 251.54 39.336C252.137 39.8693 252.436 40.6853 252.436 41.784V47H251.348ZM248.452 47.08C247.822 47.08 247.273 46.9787 246.804 46.776C246.345 46.5627 245.993 46.2747 245.748 45.912C245.502 45.5387 245.38 45.112 245.38 44.632C245.38 44.1947 245.481 43.8 245.684 43.448C245.897 43.0853 246.238 42.7973 246.708 42.584C247.188 42.36 247.828 42.248 248.628 42.248H251.524V43.096H248.66C247.849 43.096 247.284 43.24 246.964 43.528C246.654 43.816 246.5 44.1733 246.5 44.6C246.5 45.08 246.686 45.464 247.06 45.752C247.433 46.04 247.956 46.184 248.628 46.184C249.268 46.184 249.817 46.04 250.276 45.752C250.745 45.4533 251.086 45.0267 251.3 44.472L251.556 45.256C251.342 45.8107 250.969 46.2533 250.436 46.584C249.913 46.9147 249.252 47.08 248.452 47.08ZM257.544 47.096C258.237 47.096 258.861 46.9893 259.416 46.776C259.981 46.5627 260.429 46.2693 260.76 45.896C261.091 45.512 261.256 45.0693 261.256 44.568C261.256 43.928 260.984 43.4213 260.44 43.048C259.907 42.6747 259.16 42.488 258.2 42.488L258.152 42.792C258.696 42.792 259.181 42.7067 259.608 42.536C260.035 42.3653 260.376 42.1253 260.632 41.816C260.888 41.5067 261.016 41.144 261.016 40.728C261.016 40.2587 260.856 39.8587 260.536 39.528C260.216 39.1867 259.784 38.9253 259.24 38.744C258.707 38.5627 258.104 38.4827 257.432 38.504C256.941 38.504 256.451 38.5733 255.96 38.712C255.48 38.84 254.995 39.032 254.504 39.288L254.824 40.168C255.261 39.944 255.704 39.7787 256.152 39.672C256.6 39.5547 257.032 39.4907 257.448 39.48C257.907 39.48 258.317 39.5333 258.68 39.64C259.043 39.7467 259.325 39.9067 259.528 40.12C259.741 40.3333 259.848 40.5893 259.848 40.888C259.848 41.1653 259.757 41.4053 259.576 41.608C259.405 41.8107 259.16 41.9653 258.84 42.072C258.52 42.1787 258.152 42.232 257.736 42.232H256.376V43.064H257.816C258.52 43.064 259.075 43.192 259.48 43.448C259.885 43.6933 260.088 44.04 260.088 44.488C260.088 44.7973 259.981 45.0747 259.768 45.32C259.555 45.5653 259.256 45.7573 258.872 45.896C258.488 46.0347 258.035 46.1093 257.512 46.12C256.989 46.12 256.461 46.0453 255.928 45.896C255.395 45.736 254.925 45.5067 254.52 45.208L254.152 46.056C254.611 46.408 255.139 46.6693 255.736 46.84C256.333 47.0107 256.936 47.096 257.544 47.096ZM268.171 47.08C267.445 47.08 266.789 46.9147 266.203 46.584C265.616 46.2427 265.147 45.7573 264.795 45.128C264.453 44.488 264.283 43.7093 264.283 42.792C264.283 41.8747 264.453 41.1013 264.795 40.472C265.136 39.832 265.6 39.3467 266.187 39.016C266.773 38.6853 267.435 38.52 268.171 38.52C268.971 38.52 269.685 38.7013 270.315 39.064C270.955 39.416 271.456 39.9173 271.819 40.568C272.181 41.208 272.363 41.9493 272.363 42.792C272.363 43.6453 272.181 44.392 271.819 45.032C271.456 45.672 270.955 46.1733 270.315 46.536C269.685 46.8987 268.971 47.08 268.171 47.08ZM263.835 50.104V38.6H264.923V41.128L264.811 42.808L264.971 44.504V50.104H263.835ZM268.091 46.072C268.688 46.072 269.221 45.9387 269.691 45.672C270.16 45.3947 270.533 45.0107 270.811 44.52C271.088 44.0187 271.227 43.4427 271.227 42.792C271.227 42.1413 271.088 41.5707 270.811 41.08C270.533 40.5893 270.16 40.2053 269.691 39.928C269.221 39.6507 268.688 39.512 268.091 39.512C267.493 39.512 266.955 39.6507 266.475 39.928C266.005 40.2053 265.632 40.5893 265.355 41.08C265.088 41.5707 264.955 42.1413 264.955 42.792C264.955 43.4427 265.088 44.0187 265.355 44.52C265.632 45.0107 266.005 45.3947 266.475 45.672C266.955 45.9387 267.493 46.072 268.091 46.072ZM279.973 47V45.144L279.925 44.84V41.736C279.925 41.0213 279.722 40.472 279.317 40.088C278.922 39.704 278.33 39.512 277.541 39.512C276.997 39.512 276.479 39.6027 275.989 39.784C275.498 39.9653 275.082 40.2053 274.741 40.504L274.229 39.656C274.655 39.2933 275.167 39.016 275.765 38.824C276.362 38.6213 276.991 38.52 277.653 38.52C278.741 38.52 279.578 38.792 280.165 39.336C280.762 39.8693 281.061 40.6853 281.061 41.784V47H279.973ZM277.077 47.08C276.447 47.08 275.898 46.9787 275.429 46.776C274.97 46.5627 274.618 46.2747 274.373 45.912C274.127 45.5387 274.005 45.112 274.005 44.632C274.005 44.1947 274.106 43.8 274.309 43.448C274.522 43.0853 274.863 42.7973 275.333 42.584C275.813 42.36 276.453 42.248 277.253 42.248H280.149V43.096H277.285C276.474 43.096 275.909 43.24 275.589 43.528C275.279 43.816 275.125 44.1733 275.125 44.6C275.125 45.08 275.311 45.464 275.685 45.752C276.058 46.04 276.581 46.184 277.253 46.184C277.893 46.184 278.442 46.04 278.901 45.752C279.37 45.4533 279.711 45.0267 279.925 44.472L280.181 45.256C279.967 45.8107 279.594 46.2533 279.061 46.584C278.538 46.9147 277.877 47.08 277.077 47.08ZM287.861 47.096C287.178 47.096 286.57 46.984 286.037 46.76C285.514 46.536 285.066 46.1947 284.693 45.736C284.319 45.2773 284.037 44.712 283.845 44.04C283.653 43.3573 283.557 42.568 283.557 41.672C283.557 40.872 283.631 40.1733 283.781 39.576C283.93 38.968 284.138 38.4453 284.405 38.008C284.671 37.5707 284.981 37.2027 285.333 36.904C285.695 36.5947 286.085 36.3493 286.501 36.168C286.927 35.976 287.365 35.832 287.813 35.736L291.589 34.856L291.781 35.912L288.229 36.712C288.005 36.7653 287.733 36.84 287.413 36.936C287.103 37.032 286.783 37.176 286.453 37.368C286.133 37.56 285.834 37.8267 285.557 38.168C285.279 38.5093 285.055 38.952 284.885 39.496C284.725 40.0293 284.645 40.696 284.645 41.496C284.645 41.6667 284.65 41.8053 284.661 41.912C284.671 42.008 284.682 42.1147 284.693 42.232C284.714 42.3387 284.73 42.4987 284.741 42.712L284.245 42.296C284.362 41.6453 284.602 41.08 284.965 40.6C285.327 40.1093 285.781 39.7307 286.325 39.464C286.879 39.1867 287.493 39.048 288.165 39.048C288.943 39.048 289.637 39.2187 290.245 39.56C290.853 39.8907 291.327 40.3547 291.669 40.952C292.021 41.5493 292.197 42.2427 292.197 43.032C292.197 43.8107 292.015 44.5093 291.653 45.128C291.301 45.7467 290.799 46.232 290.149 46.584C289.498 46.9253 288.735 47.096 287.861 47.096ZM287.989 46.152C288.586 46.152 289.114 46.0187 289.573 45.752C290.031 45.4747 290.389 45.1013 290.645 44.632C290.911 44.1627 291.045 43.6347 291.045 43.048C291.045 42.472 290.911 41.96 290.645 41.512C290.389 41.064 290.031 40.712 289.573 40.456C289.114 40.1893 288.581 40.056 287.973 40.056C287.375 40.056 286.847 40.184 286.389 40.44C285.93 40.6853 285.567 41.032 285.301 41.48C285.045 41.928 284.917 42.4453 284.917 43.032C284.917 43.6187 285.045 44.1467 285.301 44.616C285.567 45.0853 285.93 45.4587 286.389 45.736C286.858 46.0133 287.391 46.152 287.989 46.152ZM298.088 47.08C297.277 47.08 296.546 46.8987 295.896 46.536C295.256 46.1627 294.749 45.656 294.376 45.016C294.002 44.3653 293.816 43.624 293.816 42.792C293.816 41.9493 294.002 41.208 294.376 40.568C294.749 39.928 295.256 39.4267 295.896 39.064C296.536 38.7013 297.266 38.52 298.088 38.52C298.92 38.52 299.656 38.7013 300.296 39.064C300.946 39.4267 301.453 39.928 301.816 40.568C302.189 41.208 302.376 41.9493 302.376 42.792C302.376 43.624 302.189 44.3653 301.816 45.016C301.453 45.656 300.946 46.1627 300.296 46.536C299.645 46.8987 298.909 47.08 298.088 47.08ZM298.088 46.072C298.696 46.072 299.234 45.9387 299.704 45.672C300.173 45.3947 300.541 45.0107 300.808 44.52C301.085 44.0187 301.224 43.4427 301.224 42.792C301.224 42.1307 301.085 41.5547 300.808 41.064C300.541 40.5733 300.173 40.1947 299.704 39.928C299.234 39.6507 298.701 39.512 298.104 39.512C297.506 39.512 296.973 39.6507 296.504 39.928C296.034 40.1947 295.661 40.5733 295.384 41.064C295.106 41.5547 294.968 42.1307 294.968 42.792C294.968 43.4427 295.106 44.0187 295.384 44.52C295.661 45.0107 296.034 45.3947 296.504 45.672C296.973 45.9387 297.501 46.072 298.088 46.072ZM306.091 47V39.288L306.379 39.592H302.907V38.6H310.411V39.592H306.939L307.227 39.288V47H306.091ZM318.214 47L314.758 42.84L315.702 42.28L319.558 47H318.214ZM312.054 47V38.6H313.19V47H312.054ZM312.838 43.256V42.28H315.542V43.256H312.838ZM315.798 42.92L314.742 42.76L318.086 38.6H319.318L315.798 42.92ZM326.41 47V45.144L326.362 44.84V41.736C326.362 41.0213 326.159 40.472 325.754 40.088C325.359 39.704 324.767 39.512 323.978 39.512C323.434 39.512 322.917 39.6027 322.426 39.784C321.935 39.9653 321.519 40.2053 321.178 40.504L320.666 39.656C321.093 39.2933 321.605 39.016 322.202 38.824C322.799 38.6213 323.429 38.52 324.09 38.52C325.178 38.52 326.015 38.792 326.602 39.336C327.199 39.8693 327.498 40.6853 327.498 41.784V47H326.41ZM323.514 47.08C322.885 47.08 322.335 46.9787 321.866 46.776C321.407 46.5627 321.055 46.2747 320.81 45.912C320.565 45.5387 320.442 45.112 320.442 44.632C320.442 44.1947 320.543 43.8 320.746 43.448C320.959 43.0853 321.301 42.7973 321.77 42.584C322.25 42.36 322.89 42.248 323.69 42.248H326.586V43.096H323.722C322.911 43.096 322.346 43.24 322.026 43.528C321.717 43.816 321.562 44.1733 321.562 44.6C321.562 45.08 321.749 45.464 322.122 45.752C322.495 46.04 323.018 46.184 323.69 46.184C324.33 46.184 324.879 46.04 325.338 45.752C325.807 45.4533 326.149 45.0267 326.362 44.472L326.618 45.256C326.405 45.8107 326.031 46.2533 325.498 46.584C324.975 46.9147 324.314 47.08 323.514 47.08ZM334.71 47V38.6H338.422C339.371 38.6 340.118 38.7813 340.662 39.144C341.216 39.5067 341.494 40.04 341.494 40.744C341.494 41.4267 341.232 41.9547 340.71 42.328C340.187 42.6907 339.499 42.872 338.646 42.872L338.87 42.536C339.872 42.536 340.608 42.7227 341.078 43.096C341.547 43.4693 341.782 44.008 341.782 44.712C341.782 45.4373 341.515 46.0027 340.982 46.408C340.459 46.8027 339.643 47 338.534 47H334.71ZM335.814 46.104H338.486C339.2 46.104 339.739 45.992 340.102 45.768C340.475 45.5333 340.662 45.16 340.662 44.648C340.662 44.136 340.496 43.7627 340.166 43.528C339.835 43.2933 339.312 43.176 338.598 43.176H335.814V46.104ZM335.814 42.328H338.342C338.992 42.328 339.488 42.2053 339.83 41.96C340.182 41.7147 340.358 41.3573 340.358 40.888C340.358 40.4187 340.182 40.0667 339.83 39.832C339.488 39.5973 338.992 39.48 338.342 39.48H335.814V42.328ZM352.636 47V38.6H353.772V47H352.636ZM347.98 41.56C349.036 41.5707 349.841 41.8053 350.396 42.264C350.951 42.7227 351.228 43.384 351.228 44.248C351.228 45.144 350.929 45.832 350.332 46.312C349.735 46.792 348.881 47.0267 347.772 47.016L344.444 47V38.6H345.58V41.528L347.98 41.56ZM347.692 46.152C348.481 46.1627 349.073 46.008 349.468 45.688C349.873 45.3573 350.076 44.8773 350.076 44.248C350.076 43.6187 349.879 43.16 349.484 42.872C349.089 42.5733 348.492 42.4187 347.692 42.408L345.58 42.376V46.12L347.692 46.152ZM360.527 47.08C359.695 47.08 358.948 46.8987 358.287 46.536C357.636 46.1627 357.124 45.656 356.751 45.016C356.377 44.3653 356.191 43.624 356.191 42.792C356.191 41.9493 356.377 41.208 356.751 40.568C357.124 39.928 357.636 39.4267 358.287 39.064C358.948 38.7013 359.695 38.52 360.527 38.52C361.241 38.52 361.887 38.6587 362.463 38.936C363.039 39.2133 363.492 39.6293 363.823 40.184L362.975 40.76C362.687 40.3333 362.329 40.0187 361.903 39.816C361.476 39.6133 361.012 39.512 360.511 39.512C359.913 39.512 359.375 39.6507 358.895 39.928C358.415 40.1947 358.036 40.5733 357.759 41.064C357.481 41.5547 357.343 42.1307 357.343 42.792C357.343 43.4533 357.481 44.0293 357.759 44.52C358.036 45.0107 358.415 45.3947 358.895 45.672C359.375 45.9387 359.913 46.072 360.511 46.072C361.012 46.072 361.476 45.9707 361.903 45.768C362.329 45.5653 362.687 45.256 362.975 44.84L363.823 45.416C363.492 45.96 363.039 46.376 362.463 46.664C361.887 46.9413 361.241 47.08 360.527 47.08ZM369.338 47.08C368.527 47.08 367.796 46.8987 367.146 46.536C366.506 46.1627 365.999 45.656 365.626 45.016C365.252 44.3653 365.066 43.624 365.066 42.792C365.066 41.9493 365.252 41.208 365.626 40.568C365.999 39.928 366.506 39.4267 367.146 39.064C367.786 38.7013 368.516 38.52 369.338 38.52C370.17 38.52 370.906 38.7013 371.546 39.064C372.196 39.4267 372.703 39.928 373.066 40.568C373.439 41.208 373.626 41.9493 373.626 42.792C373.626 43.624 373.439 44.3653 373.066 45.016C372.703 45.656 372.196 46.1627 371.546 46.536C370.895 46.8987 370.159 47.08 369.338 47.08ZM369.338 46.072C369.946 46.072 370.484 45.9387 370.954 45.672C371.423 45.3947 371.791 45.0107 372.058 44.52C372.335 44.0187 372.474 43.4427 372.474 42.792C372.474 42.1307 372.335 41.5547 372.058 41.064C371.791 40.5733 371.423 40.1947 370.954 39.928C370.484 39.6507 369.951 39.512 369.354 39.512C368.756 39.512 368.223 39.6507 367.754 39.928C367.284 40.1947 366.911 40.5733 366.634 41.064C366.356 41.5547 366.218 42.1307 366.218 42.792C366.218 43.4427 366.356 44.0187 366.634 44.52C366.911 45.0107 367.284 45.3947 367.754 45.672C368.223 45.9387 368.751 46.072 369.338 46.072ZM382.214 47L378.758 42.84L379.702 42.28L383.558 47H382.214ZM376.054 47V38.6H377.19V47H376.054ZM376.838 43.256V42.28H379.542V43.256H376.838ZM379.798 42.92L378.742 42.76L382.086 38.6H383.318L379.798 42.92ZM388.51 47.08C387.699 47.08 386.968 46.8987 386.318 46.536C385.678 46.1627 385.171 45.656 384.798 45.016C384.424 44.3653 384.238 43.624 384.238 42.792C384.238 41.9493 384.424 41.208 384.798 40.568C385.171 39.928 385.678 39.4267 386.318 39.064C386.958 38.7013 387.688 38.52 388.51 38.52C389.342 38.52 390.078 38.7013 390.718 39.064C391.368 39.4267 391.875 39.928 392.238 40.568C392.611 41.208 392.798 41.9493 392.798 42.792C392.798 43.624 392.611 44.3653 392.238 45.016C391.875 45.656 391.368 46.1627 390.718 46.536C390.067 46.8987 389.331 47.08 388.51 47.08ZM388.51 46.072C389.118 46.072 389.656 45.9387 390.126 45.672C390.595 45.3947 390.963 45.0107 391.23 44.52C391.507 44.0187 391.646 43.4427 391.646 42.792C391.646 42.1307 391.507 41.5547 391.23 41.064C390.963 40.5733 390.595 40.1947 390.126 39.928C389.656 39.6507 389.123 39.512 388.526 39.512C387.928 39.512 387.395 39.6507 386.926 39.928C386.456 40.1947 386.083 40.5733 385.806 41.064C385.528 41.5547 385.39 42.1307 385.39 42.792C385.39 43.4427 385.528 44.0187 385.806 44.52C386.083 45.0107 386.456 45.3947 386.926 45.672C387.395 45.9387 387.923 46.072 388.51 46.072ZM405.573 47L402.117 42.84L403.061 42.28L406.917 47H405.573ZM399.413 47V38.6H400.549V47H399.413ZM400.197 43.256V42.28H402.901V43.256H400.197ZM403.157 42.92L402.101 42.76L405.445 38.6H406.677L403.157 42.92ZM411.869 47.08C411.058 47.08 410.328 46.8987 409.677 46.536C409.037 46.1627 408.53 45.656 408.157 45.016C407.784 44.3653 407.597 43.624 407.597 42.792C407.597 41.9493 407.784 41.208 408.157 40.568C408.53 39.928 409.037 39.4267 409.677 39.064C410.317 38.7013 411.048 38.52 411.869 38.52C412.701 38.52 413.437 38.7013 414.077 39.064C414.728 39.4267 415.234 39.928 415.597 40.568C415.97 41.208 416.157 41.9493 416.157 42.792C416.157 43.624 415.97 44.3653 415.597 45.016C415.234 45.656 414.728 46.1627 414.077 46.536C413.426 46.8987 412.69 47.08 411.869 47.08ZM411.869 46.072C412.477 46.072 413.016 45.9387 413.485 45.672C413.954 45.3947 414.322 45.0107 414.589 44.52C414.866 44.0187 415.005 43.4427 415.005 42.792C415.005 42.1307 414.866 41.5547 414.589 41.064C414.322 40.5733 413.954 40.1947 413.485 39.928C413.016 39.6507 412.482 39.512 411.885 39.512C411.288 39.512 410.754 39.6507 410.285 39.928C409.816 40.1947 409.442 40.5733 409.165 41.064C408.888 41.5547 408.749 42.1307 408.749 42.792C408.749 43.4427 408.888 44.0187 409.165 44.52C409.442 45.0107 409.816 45.3947 410.285 45.672C410.754 45.9387 411.282 46.072 411.869 46.072ZM418.585 47V38.6H419.721V42.312H425.017V38.6H426.153V47H425.017V43.288H419.721V47H418.585ZM429.382 47V38.6H433.094C434.043 38.6 434.79 38.7813 435.334 39.144C435.888 39.5067 436.166 40.04 436.166 40.744C436.166 41.4267 435.904 41.9547 435.382 42.328C434.859 42.6907 434.171 42.872 433.318 42.872L433.542 42.536C434.544 42.536 435.28 42.7227 435.75 43.096C436.219 43.4693 436.454 44.008 436.454 44.712C436.454 45.4373 436.187 46.0027 435.654 46.408C435.131 46.8027 434.315 47 433.206 47H429.382ZM430.486 46.104H433.158C433.872 46.104 434.411 45.992 434.774 45.768C435.147 45.5333 435.334 45.16 435.334 44.648C435.334 44.136 435.168 43.7627 434.838 43.528C434.507 43.2933 433.984 43.176 433.27 43.176H430.486V46.104ZM430.486 42.328H433.014C433.664 42.328 434.16 42.2053 434.502 41.96C434.854 41.7147 435.03 41.3573 435.03 40.888C435.03 40.4187 434.854 40.0667 434.502 39.832C434.16 39.5973 433.664 39.48 433.014 39.48H430.486V42.328ZM442.716 47.08C441.841 47.08 441.073 46.8987 440.412 46.536C439.751 46.1627 439.233 45.656 438.86 45.016C438.487 44.3653 438.3 43.624 438.3 42.792C438.3 41.96 438.476 41.224 438.828 40.584C439.191 39.944 439.681 39.4427 440.3 39.08C440.929 38.7067 441.633 38.52 442.412 38.52C443.201 38.52 443.9 38.7013 444.508 39.064C445.127 39.416 445.612 39.9173 445.964 40.568C446.316 41.208 446.492 41.9493 446.492 42.792C446.492 42.8453 446.487 42.904 446.476 42.968C446.476 43.0213 446.476 43.08 446.476 43.144H439.164V42.296H445.868L445.42 42.632C445.42 42.024 445.287 41.4853 445.02 41.016C444.764 40.536 444.412 40.1627 443.964 39.896C443.516 39.6293 442.999 39.496 442.412 39.496C441.836 39.496 441.319 39.6293 440.86 39.896C440.401 40.1627 440.044 40.536 439.788 41.016C439.532 41.496 439.404 42.0453 439.404 42.664V42.84C439.404 43.48 439.543 44.0453 439.82 44.536C440.108 45.016 440.503 45.3947 441.004 45.672C441.516 45.9387 442.097 46.072 442.748 46.072C443.26 46.072 443.735 45.9813 444.172 45.8C444.62 45.6187 445.004 45.3413 445.324 44.968L445.964 45.704C445.591 46.152 445.121 46.4933 444.556 46.728C444.001 46.9627 443.388 47.08 442.716 47.08ZM453.343 47.08C452.617 47.08 451.961 46.9147 451.375 46.584C450.788 46.2427 450.319 45.7573 449.967 45.128C449.625 44.488 449.455 43.7093 449.455 42.792C449.455 41.8747 449.625 41.1013 449.967 40.472C450.308 39.832 450.772 39.3467 451.359 39.016C451.945 38.6853 452.607 38.52 453.343 38.52C454.143 38.52 454.857 38.7013 455.487 39.064C456.127 39.416 456.628 39.9173 456.991 40.568C457.353 41.208 457.535 41.9493 457.535 42.792C457.535 43.6453 457.353 44.392 456.991 45.032C456.628 45.672 456.127 46.1733 455.487 46.536C454.857 46.8987 454.143 47.08 453.343 47.08ZM449.007 50.104V38.6H450.095V41.128L449.983 42.808L450.143 44.504V50.104H449.007ZM453.263 46.072C453.86 46.072 454.393 45.9387 454.863 45.672C455.332 45.3947 455.705 45.0107 455.983 44.52C456.26 44.0187 456.399 43.4427 456.399 42.792C456.399 42.1413 456.26 41.5707 455.983 41.08C455.705 40.5893 455.332 40.2053 454.863 39.928C454.393 39.6507 453.86 39.512 453.263 39.512C452.665 39.512 452.127 39.6507 451.647 39.928C451.177 40.2053 450.804 40.5893 450.527 41.08C450.26 41.5707 450.127 42.1413 450.127 42.792C450.127 43.4427 450.26 44.0187 450.527 44.52C450.804 45.0107 451.177 45.3947 451.647 45.672C452.127 45.9387 452.665 46.072 453.263 46.072ZM463.495 47.08C462.663 47.08 461.917 46.8987 461.255 46.536C460.605 46.1627 460.093 45.656 459.719 45.016C459.346 44.3653 459.159 43.624 459.159 42.792C459.159 41.9493 459.346 41.208 459.719 40.568C460.093 39.928 460.605 39.4267 461.255 39.064C461.917 38.7013 462.663 38.52 463.495 38.52C464.21 38.52 464.855 38.6587 465.431 38.936C466.007 39.2133 466.461 39.6293 466.791 40.184L465.943 40.76C465.655 40.3333 465.298 40.0187 464.871 39.816C464.445 39.6133 463.981 39.512 463.479 39.512C462.882 39.512 462.343 39.6507 461.863 39.928C461.383 40.1947 461.005 40.5733 460.727 41.064C460.45 41.5547 460.311 42.1307 460.311 42.792C460.311 43.4533 460.45 44.0293 460.727 44.52C461.005 45.0107 461.383 45.3947 461.863 45.672C462.343 45.9387 462.882 46.072 463.479 46.072C463.981 46.072 464.445 45.9707 464.871 45.768C465.298 45.5653 465.655 45.256 465.943 44.84L466.791 45.416C466.461 45.96 466.007 46.376 465.431 46.664C464.855 46.9413 464.21 47.08 463.495 47.08ZM468.991 47V38.6H470.127V45.272L475.743 38.6H476.751V47H475.615V40.312L470.015 47H468.991ZM483.463 47.08C482.652 47.08 481.921 46.8987 481.271 46.536C480.631 46.1627 480.124 45.656 479.751 45.016C479.377 44.3653 479.191 43.624 479.191 42.792C479.191 41.9493 479.377 41.208 479.751 40.568C480.124 39.928 480.631 39.4267 481.271 39.064C481.911 38.7013 482.641 38.52 483.463 38.52C484.295 38.52 485.031 38.7013 485.671 39.064C486.321 39.4267 486.828 39.928 487.191 40.568C487.564 41.208 487.751 41.9493 487.751 42.792C487.751 43.624 487.564 44.3653 487.191 45.016C486.828 45.656 486.321 46.1627 485.671 46.536C485.02 46.8987 484.284 47.08 483.463 47.08ZM483.463 46.072C484.071 46.072 484.609 45.9387 485.079 45.672C485.548 45.3947 485.916 45.0107 486.183 44.52C486.46 44.0187 486.599 43.4427 486.599 42.792C486.599 42.1307 486.46 41.5547 486.183 41.064C485.916 40.5733 485.548 40.1947 485.079 39.928C484.609 39.6507 484.076 39.512 483.479 39.512C482.881 39.512 482.348 39.6507 481.879 39.928C481.409 40.1947 481.036 40.5733 480.759 41.064C480.481 41.5547 480.343 42.1307 480.343 42.792C480.343 43.4427 480.481 44.0187 480.759 44.52C481.036 45.0107 481.409 45.3947 481.879 45.672C482.348 45.9387 482.876 46.072 483.463 46.072ZM490.179 47V38.6H491.315V42.312H496.611V38.6H497.747V47H496.611V43.288H491.315V47H490.179ZM500.975 47V38.6H502.111V42.312H507.407V38.6H508.543V47H507.407V43.288H502.111V47H500.975ZM519.964 47V38.6H521.1V47H519.964ZM515.308 41.56C516.364 41.5707 517.17 41.8053 517.724 42.264C518.279 42.7227 518.556 43.384 518.556 44.248C518.556 45.144 518.258 45.832 517.66 46.312C517.063 46.792 516.21 47.0267 515.1 47.016L511.772 47V38.6H512.908V41.528L515.308 41.56ZM515.02 46.152C515.81 46.1627 516.402 46.008 516.796 45.688C517.202 45.3573 517.404 44.8773 517.404 44.248C517.404 43.6187 517.207 43.16 516.812 42.872C516.418 42.5733 515.82 42.4187 515.02 42.408L512.908 42.376V46.12L515.02 46.152ZM522.959 47L526.511 42.392L526.495 42.952L523.119 38.6H524.399L527.167 42.2L526.687 42.184L529.455 38.6H530.703L527.295 43L527.311 42.392L530.895 47H529.599L526.671 43.16L527.119 43.224L524.239 47H522.959ZM540.464 47.08C539.632 47.08 538.885 46.8987 538.224 46.536C537.573 46.1627 537.061 45.656 536.688 45.016C536.315 44.3653 536.128 43.624 536.128 42.792C536.128 41.9493 536.315 41.208 536.688 40.568C537.061 39.928 537.573 39.4267 538.224 39.064C538.885 38.7013 539.632 38.52 540.464 38.52C541.179 38.52 541.824 38.6587 542.4 38.936C542.976 39.2133 543.429 39.6293 543.76 40.184L542.912 40.76C542.624 40.3333 542.267 40.0187 541.84 39.816C541.413 39.6133 540.949 39.512 540.448 39.512C539.851 39.512 539.312 39.6507 538.832 39.928C538.352 40.1947 537.973 40.5733 537.696 41.064C537.419 41.5547 537.28 42.1307 537.28 42.792C537.28 43.4533 537.419 44.0293 537.696 44.52C537.973 45.0107 538.352 45.3947 538.832 45.672C539.312 45.9387 539.851 46.072 540.448 46.072C540.949 46.072 541.413 45.9707 541.84 45.768C542.267 45.5653 542.624 45.256 542.912 44.84L543.76 45.416C543.429 45.96 542.976 46.376 542.4 46.664C541.824 46.9413 541.179 47.08 540.464 47.08ZM551.176 47V45.144L551.128 44.84V41.736C551.128 41.0213 550.925 40.472 550.52 40.088C550.125 39.704 549.533 39.512 548.744 39.512C548.2 39.512 547.682 39.6027 547.192 39.784C546.701 39.9653 546.285 40.2053 545.944 40.504L545.432 39.656C545.858 39.2933 546.37 39.016 546.968 38.824C547.565 38.6213 548.194 38.52 548.856 38.52C549.944 38.52 550.781 38.792 551.368 39.336C551.965 39.8693 552.264 40.6853 552.264 41.784V47H551.176ZM548.28 47.08C547.65 47.08 547.101 46.9787 546.632 46.776C546.173 46.5627 545.821 46.2747 545.576 45.912C545.33 45.5387 545.208 45.112 545.208 44.632C545.208 44.1947 545.309 43.8 545.512 43.448C545.725 43.0853 546.066 42.7973 546.536 42.584C547.016 42.36 547.656 42.248 548.456 42.248H551.352V43.096H548.488C547.677 43.096 547.112 43.24 546.792 43.528C546.482 43.816 546.328 44.1733 546.328 44.6C546.328 45.08 546.514 45.464 546.888 45.752C547.261 46.04 547.784 46.184 548.456 46.184C549.096 46.184 549.645 46.04 550.104 45.752C550.573 45.4533 550.914 45.0267 551.128 44.472L551.384 45.256C551.17 45.8107 550.797 46.2533 550.264 46.584C549.741 46.9147 549.08 47.08 548.28 47.08ZM555.288 47V38.6H556.424V45.272L562.04 38.6H563.048V47H561.912V40.312L556.312 47H555.288ZM559.096 37.384C558.392 37.384 557.821 37.208 557.384 36.856C556.957 36.4933 556.733 35.976 556.712 35.304H557.528C557.539 35.7307 557.688 36.0667 557.976 36.312C558.264 36.5573 558.637 36.68 559.096 36.68C559.555 36.68 559.928 36.5573 560.216 36.312C560.515 36.0667 560.669 35.7307 560.68 35.304H561.496C561.485 35.976 561.261 36.4933 560.824 36.856C560.387 37.208 559.811 37.384 559.096 37.384ZM567.904 47V39.288L568.192 39.592H564.72V38.6H572.224V39.592H568.752L569.04 39.288V47H567.904ZM576.931 47.08C576.121 47.08 575.39 46.8987 574.739 46.536C574.099 46.1627 573.593 45.656 573.219 45.016C572.846 44.3653 572.659 43.624 572.659 42.792C572.659 41.9493 572.846 41.208 573.219 40.568C573.593 39.928 574.099 39.4267 574.739 39.064C575.379 38.7013 576.11 38.52 576.931 38.52C577.763 38.52 578.499 38.7013 579.139 39.064C579.79 39.4267 580.297 39.928 580.659 40.568C581.033 41.208 581.219 41.9493 581.219 42.792C581.219 43.624 581.033 44.3653 580.659 45.016C580.297 45.656 579.79 46.1627 579.139 46.536C578.489 46.8987 577.753 47.08 576.931 47.08ZM576.931 46.072C577.539 46.072 578.078 45.9387 578.547 45.672C579.017 45.3947 579.385 45.0107 579.651 44.52C579.929 44.0187 580.067 43.4427 580.067 42.792C580.067 42.1307 579.929 41.5547 579.651 41.064C579.385 40.5733 579.017 40.1947 578.547 39.928C578.078 39.6507 577.545 39.512 576.947 39.512C576.35 39.512 575.817 39.6507 575.347 39.928C574.878 40.1947 574.505 40.5733 574.227 41.064C573.95 41.5547 573.811 42.1307 573.811 42.792C573.811 43.4427 573.95 44.0187 574.227 44.52C574.505 45.0107 574.878 45.3947 575.347 45.672C575.817 45.9387 576.345 46.072 576.931 46.072ZM583.647 47V38.6H587.359C588.309 38.6 589.055 38.7813 589.599 39.144C590.154 39.5067 590.431 40.04 590.431 40.744C590.431 41.4267 590.17 41.9547 589.647 42.328C589.125 42.6907 588.437 42.872 587.583 42.872L587.807 42.536C588.81 42.536 589.546 42.7227 590.015 43.096C590.485 43.4693 590.719 44.008 590.719 44.712C590.719 45.4373 590.453 46.0027 589.919 46.408C589.397 46.8027 588.581 47 587.471 47H583.647ZM584.751 46.104H587.423C588.138 46.104 588.677 45.992 589.039 45.768C589.413 45.5333 589.599 45.16 589.599 44.648C589.599 44.136 589.434 43.7627 589.103 43.528C588.773 43.2933 588.25 43.176 587.535 43.176H584.751V46.104ZM584.751 42.328H587.279C587.93 42.328 588.426 42.2053 588.767 41.96C589.119 41.7147 589.295 41.3573 589.295 40.888C589.295 40.4187 589.119 40.0667 588.767 39.832C588.426 39.5973 587.93 39.48 587.279 39.48H584.751V42.328Z" fill="white" fill-opacity="0.5"/>
<defs>
<filter id="filter0_f_1_197" x="0" y="0" width="69" height="82" filterUnits="userSpaceOnUse" color-interpolation-filters="sRGB">
<feFlood flood-opacity="0" result="BackgroundImageFix"/>
<feBlend mode="normal" in="SourceGraphic" in2="BackgroundImageFix" result="shape"/>
<feGaussianBlur stdDeviation="10" result="effect1_foregroundBlur_1_197"/>
</filter>
<linearGradient id="paint0_linear_1_197" x1="-1.58844" y1="8.85712" x2="223.956" y2="80.6058" gradientUnits="userSpaceOnUse">
<stop stop-color="#1C5771"/>
<stop offset="0.809039" stop-color="#4A90AE"/>
</linearGradient>
</defs>
</svg>
