<svg width="192" height="57" viewBox="0 0 192 57" fill="none" xmlns="http://www.w3.org/2000/svg">
<path d="M14.7094 23.9993C14.7094 24.4345 14.7094 24.6522 14.8514 24.7626C14.9934 24.873 15.2043 24.8194 15.6261 24.7121L88.2742 6.23951C88.8752 6.08669 89.1757 6.01028 89.4825 6.01028C89.7893 6.01028 90.0898 6.08669 90.6908 6.23951L163.339 24.7121C163.761 24.8194 163.972 24.873 164.114 24.7626C164.256 24.6522 164.256 24.4345 164.256 23.9993V23.3254C164.256 21.4939 164.256 20.5782 163.739 19.9143C163.223 19.2504 162.336 19.0248 160.561 18.5734L90.6908 0.80724C90.0898 0.654422 89.7893 0.578013 89.4825 0.578013C89.1757 0.578013 88.8752 0.654422 88.2742 0.807241L18.4043 18.5734C16.6293 19.0248 15.7418 19.2504 15.2256 19.9143C14.7094 20.5782 14.7094 21.4939 14.7094 23.3254V23.9993Z" fill="#1EAB5F"/>
<rect x="121.528" y="0.5" width="7.12125" height="12.2226" rx="1.22579" fill="#1EAB5F"/>
<path d="M11.7441 31.54C13.1094 31.54 14.3041 31.8067 15.3281 32.34C16.3734 32.852 17.1841 33.6413 17.7601 34.708C18.3574 35.7747 18.6561 37.1187 18.6561 38.74V48.5H16.3841V38.964C16.3841 37.1933 15.9361 35.86 15.0401 34.964C14.1654 34.0467 12.9281 33.588 11.3281 33.588C10.1334 33.588 9.08806 33.8333 8.19206 34.324C7.31739 34.7933 6.63473 35.4867 6.14406 36.404C5.67473 37.3 5.44006 38.388 5.44006 39.668V48.5H3.16806V24.756H5.44006V36.308L4.99206 35.444C5.52539 34.228 6.37873 33.2787 7.55206 32.596C8.72539 31.892 10.1227 31.54 11.7441 31.54ZM31.6411 48.66C30.0197 48.66 28.5584 48.2973 27.2571 47.572C25.9771 46.8253 24.9637 45.812 24.2171 44.532C23.4704 43.2307 23.0971 41.748 23.0971 40.084C23.0971 38.3987 23.4704 36.916 24.2171 35.636C24.9637 34.356 25.9771 33.3533 27.2571 32.628C28.5371 31.9027 29.9984 31.54 31.6411 31.54C33.3051 31.54 34.7771 31.9027 36.0571 32.628C37.3584 33.3533 38.3717 34.356 39.0971 35.636C39.8437 36.916 40.2171 38.3987 40.2171 40.084C40.2171 41.748 39.8437 43.2307 39.0971 44.532C38.3717 45.812 37.3584 46.8253 36.0571 47.572C34.7557 48.2973 33.2837 48.66 31.6411 48.66ZM31.6411 46.644C32.8571 46.644 33.9344 46.3773 34.8731 45.844C35.8117 45.2893 36.5477 44.5213 37.0811 43.54C37.6357 42.5373 37.9131 41.3853 37.9131 40.084C37.9131 38.7613 37.6357 37.6093 37.0811 36.628C36.5477 35.6467 35.8117 34.8893 34.8731 34.356C33.9344 33.8013 32.8677 33.524 31.6731 33.524C30.4784 33.524 29.4117 33.8013 28.4731 34.356C27.5344 34.8893 26.7877 35.6467 26.2331 36.628C25.6784 37.6093 25.4011 38.7613 25.4011 40.084C25.4011 41.3853 25.6784 42.5373 26.2331 43.54C26.7877 44.5213 27.5344 45.2893 28.4731 45.844C29.4117 46.3773 30.4677 46.644 31.6411 46.644ZM51.7996 48.66C50.3702 48.66 49.1222 48.3933 48.0556 47.86C46.9889 47.3267 46.1569 46.5267 45.5596 45.46C44.9836 44.3933 44.6956 43.06 44.6956 41.46V31.7H46.9676V41.204C46.9676 42.996 47.4049 44.3507 48.2796 45.268C49.1756 46.164 50.4236 46.612 52.0236 46.612C53.1969 46.612 54.2102 46.3773 55.0636 45.908C55.9382 45.4173 56.5996 44.7133 57.0476 43.796C57.5169 42.8787 57.7516 41.78 57.7516 40.5V31.7H60.0236V48.5H57.8476V43.892L58.1996 44.724C57.6662 45.9613 56.8342 46.932 55.7036 47.636C54.5942 48.3187 53.2929 48.66 51.7996 48.66ZM70.8676 48.66C69.4809 48.66 68.1689 48.468 66.9316 48.084C65.6942 47.6787 64.7236 47.1773 64.0196 46.58L65.0436 44.788C65.7262 45.3 66.6009 45.748 67.6676 46.132C68.7342 46.4947 69.8542 46.676 71.0276 46.676C72.6276 46.676 73.7796 46.4307 74.4836 45.94C75.1876 45.428 75.5396 44.756 75.5396 43.924C75.5396 43.3053 75.3369 42.8253 74.9316 42.484C74.5476 42.1213 74.0356 41.8547 73.3956 41.684C72.7556 41.492 72.0409 41.332 71.2516 41.204C70.4622 41.076 69.6729 40.9267 68.8836 40.756C68.1156 40.5853 67.4116 40.34 66.7716 40.02C66.1316 39.6787 65.6089 39.22 65.2036 38.644C64.8196 38.068 64.6276 37.3 64.6276 36.34C64.6276 35.4227 64.8836 34.6013 65.3956 33.876C65.9076 33.1507 66.6542 32.5853 67.6356 32.18C68.6382 31.7533 69.8542 31.54 71.2836 31.54C72.3716 31.54 73.4596 31.6893 74.5476 31.988C75.6356 32.2653 76.5316 32.6387 77.2356 33.108L76.2436 34.932C75.4969 34.42 74.6969 34.0573 73.8436 33.844C72.9902 33.6093 72.1369 33.492 71.2836 33.492C69.7689 33.492 68.6489 33.7587 67.9236 34.292C67.2196 34.804 66.8676 35.4653 66.8676 36.276C66.8676 36.916 67.0596 37.4173 67.4436 37.78C67.8489 38.1427 68.3716 38.4307 69.0116 38.644C69.6729 38.836 70.3876 38.996 71.1556 39.124C71.9449 39.252 72.7236 39.412 73.4916 39.604C74.2809 39.7747 74.9956 40.02 75.6356 40.34C76.2969 40.6387 76.8196 41.076 77.2036 41.652C77.6089 42.2067 77.8116 42.9427 77.8116 43.86C77.8116 44.8413 77.5342 45.6947 76.9796 46.42C76.4462 47.124 75.6569 47.6787 74.6116 48.084C73.5876 48.468 72.3396 48.66 70.8676 48.66ZM89.1166 48.66C87.3672 48.66 85.8312 48.2973 84.5086 47.572C83.1859 46.8253 82.1512 45.812 81.4046 44.532C80.6579 43.2307 80.2846 41.748 80.2846 40.084C80.2846 38.42 80.6366 36.948 81.3406 35.668C82.0659 34.388 83.0472 33.3853 84.2846 32.66C85.5432 31.9133 86.9512 31.54 88.5086 31.54C90.0872 31.54 91.4846 31.9027 92.7006 32.628C93.9379 33.332 94.9086 34.3347 95.6126 35.636C96.3166 36.916 96.6686 38.3987 96.6686 40.084C96.6686 40.1907 96.6579 40.308 96.6366 40.436C96.6366 40.5427 96.6366 40.66 96.6366 40.788H82.0126V39.092H95.4206L94.5246 39.764C94.5246 38.548 94.2579 37.4707 93.7246 36.532C93.2126 35.572 92.5086 34.8253 91.6126 34.292C90.7166 33.7587 89.6819 33.492 88.5086 33.492C87.3566 33.492 86.3219 33.7587 85.4046 34.292C84.4872 34.8253 83.7726 35.572 83.2606 36.532C82.7486 37.492 82.4926 38.5907 82.4926 39.828V40.18C82.4926 41.46 82.7699 42.5907 83.3246 43.572C83.9006 44.532 84.6899 45.2893 85.6926 45.844C86.7166 46.3773 87.8792 46.644 89.1806 46.644C90.2046 46.644 91.1539 46.4627 92.0286 46.1C92.9246 45.7373 93.6926 45.1827 94.3326 44.436L95.6126 45.908C94.8659 46.804 93.9272 47.4867 92.7966 47.956C91.6872 48.4253 90.4606 48.66 89.1166 48.66ZM100.358 40.82V38.836H108.742V40.82H100.358ZM118.336 48.66C116.95 48.66 115.638 48.468 114.4 48.084C113.163 47.6787 112.192 47.1773 111.488 46.58L112.512 44.788C113.195 45.3 114.07 45.748 115.136 46.132C116.203 46.4947 117.323 46.676 118.496 46.676C120.096 46.676 121.248 46.4307 121.952 45.94C122.656 45.428 123.008 44.756 123.008 43.924C123.008 43.3053 122.806 42.8253 122.4 42.484C122.016 42.1213 121.504 41.8547 120.864 41.684C120.224 41.492 119.51 41.332 118.72 41.204C117.931 41.076 117.142 40.9267 116.352 40.756C115.584 40.5853 114.88 40.34 114.24 40.02C113.6 39.6787 113.078 39.22 112.672 38.644C112.288 38.068 112.096 37.3 112.096 36.34C112.096 35.4227 112.352 34.6013 112.864 33.876C113.376 33.1507 114.123 32.5853 115.104 32.18C116.107 31.7533 117.323 31.54 118.752 31.54C119.84 31.54 120.928 31.6893 122.016 31.988C123.104 32.2653 124 32.6387 124.704 33.108L123.712 34.932C122.966 34.42 122.166 34.0573 121.312 33.844C120.459 33.6093 119.606 33.492 118.752 33.492C117.238 33.492 116.118 33.7587 115.392 34.292C114.688 34.804 114.336 35.4653 114.336 36.276C114.336 36.916 114.528 37.4173 114.912 37.78C115.318 38.1427 115.84 38.4307 116.48 38.644C117.142 38.836 117.856 38.996 118.624 39.124C119.414 39.252 120.192 39.412 120.96 39.604C121.75 39.7747 122.464 40.02 123.104 40.34C123.766 40.6387 124.288 41.076 124.672 41.652C125.078 42.2067 125.28 42.9427 125.28 43.86C125.28 44.8413 125.003 45.6947 124.448 46.42C123.915 47.124 123.126 47.6787 122.08 48.084C121.056 48.468 119.808 48.66 118.336 48.66ZM134.761 48.66C133.183 48.66 131.967 48.2333 131.113 47.38C130.26 46.5267 129.833 45.3213 129.833 43.764V27.988H132.105V43.636C132.105 44.6173 132.351 45.3747 132.841 45.908C133.353 46.4413 134.079 46.708 135.017 46.708C136.02 46.708 136.852 46.42 137.513 45.844L138.313 47.476C137.865 47.8813 137.321 48.18 136.681 48.372C136.063 48.564 135.423 48.66 134.761 48.66ZM126.825 33.588V31.7H137.225V33.588H126.825ZM148.704 48.66C147.082 48.66 145.621 48.2973 144.32 47.572C143.04 46.8253 142.026 45.812 141.28 44.532C140.533 43.2307 140.16 41.748 140.16 40.084C140.16 38.3987 140.533 36.916 141.28 35.636C142.026 34.356 143.04 33.3533 144.32 32.628C145.6 31.9027 147.061 31.54 148.704 31.54C150.368 31.54 151.84 31.9027 153.12 32.628C154.421 33.3533 155.434 34.356 156.16 35.636C156.906 36.916 157.28 38.3987 157.28 40.084C157.28 41.748 156.906 43.2307 156.16 44.532C155.434 45.812 154.421 46.8253 153.12 47.572C151.818 48.2973 150.346 48.66 148.704 48.66ZM148.704 46.644C149.92 46.644 150.997 46.3773 151.936 45.844C152.874 45.2893 153.61 44.5213 154.144 43.54C154.698 42.5373 154.976 41.3853 154.976 40.084C154.976 38.7613 154.698 37.6093 154.144 36.628C153.61 35.6467 152.874 34.8893 151.936 34.356C150.997 33.8013 149.93 33.524 148.736 33.524C147.541 33.524 146.474 33.8013 145.536 34.356C144.597 34.8893 143.85 35.6467 143.296 36.628C142.741 37.6093 142.464 38.7613 142.464 40.084C142.464 41.3853 142.741 42.5373 143.296 43.54C143.85 44.5213 144.597 45.2893 145.536 45.844C146.474 46.3773 147.53 46.644 148.704 46.644ZM161.918 48.5V31.7H164.094V36.276L163.87 35.476C164.339 34.196 165.129 33.2253 166.238 32.564C167.347 31.8813 168.723 31.54 170.366 31.54V33.748C170.281 33.748 170.195 33.748 170.11 33.748C170.025 33.7267 169.939 33.716 169.854 33.716C168.083 33.716 166.697 34.26 165.694 35.348C164.691 36.4147 164.19 37.94 164.19 39.924V48.5H161.918ZM175.359 54.868C174.569 54.868 173.812 54.74 173.087 54.484C172.383 54.228 171.775 53.844 171.263 53.332L172.319 51.636C172.745 52.0413 173.204 52.3507 173.695 52.564C174.207 52.7987 174.772 52.916 175.391 52.916C176.137 52.916 176.777 52.7027 177.311 52.276C177.865 51.8707 178.388 51.1453 178.879 50.1L179.967 47.636L180.223 47.284L187.135 31.7H189.375L180.959 50.516C180.489 51.604 179.967 52.468 179.391 53.108C178.836 53.748 178.228 54.196 177.567 54.452C176.905 54.7293 176.169 54.868 175.359 54.868ZM179.839 48.98L172.095 31.7H174.463L181.311 47.124L179.839 48.98Z" fill="#1EAB5F"/>
</svg>
