<svg width="47" height="55" viewBox="0 0 47 55" fill="none" xmlns="http://www.w3.org/2000/svg">
<g filter="url(#filter0_i_1_30)">
<path d="M0 49.0271C0 32.7525 0 16.6263 0 0.5C2.4666 0.5 4.9332 0.5 7.39979 0.5C7.37176 6.80222 7.39979 13.1786 7.39979 19.592C12.2489 19.6291 17.098 19.6291 21.9471 19.6291C21.9191 13.2157 21.9191 6.83929 21.9191 0.5C24.4137 0.5 26.9083 0.5 29.3749 0.5C29.3749 16.6633 29.3469 32.8638 29.3469 49.1012C26.8803 49.1012 24.3577 49.0642 21.9471 49.0271C21.9191 41.9464 21.8911 34.7915 21.9191 27.7849C17.098 27.8591 12.1648 27.8591 7.39979 27.8591C7.39979 34.7915 7.37176 41.9464 7.39979 49.0642C4.9332 49.0271 2.43857 48.99 0 49.0271Z" fill="#1EAB5F"/>
</g>
<path d="M14.6876 37.3256C17.2767 37.1133 19.8758 36.8765 22.4851 36.6151C22.9705 39.7265 23.9111 42.0295 25.3371 43.5729C26.7934 45.0919 28.7352 45.8758 31.1624 45.9003C33.7413 45.8758 35.6831 45.1409 36.9877 43.8179C38.3227 42.4214 38.9599 40.878 38.9599 39.1631C38.9599 38.0606 38.6868 37.1296 38.1407 36.3456C37.5946 35.5617 36.6237 34.8757 35.2584 34.3122C34.3178 33.9202 32.1636 33.2343 28.8262 32.2543C24.5179 31.0048 21.5142 29.4859 19.7848 27.7219C17.3272 25.2965 16.1136 22.3076 16.1136 18.6572C16.1136 16.2563 16.6901 13.9289 17.8127 11.626C18.9656 9.20054 20.6343 7.19161 22.7885 5.69716C24.9426 4.15371 27.5519 3.32074 30.6163 3.19824C35.6224 3.41873 39.3543 5.32967 41.8725 8.58806C44.3908 11.724 45.7258 15.4478 45.8471 19.7842C43.1772 19.6862 40.5072 19.6127 37.8373 19.5637C37.5035 17.0648 36.745 15.2028 35.6224 14.0269C34.4998 12.8264 32.8008 12.1894 30.5253 12.1649C28.2194 12.2139 26.3686 12.8999 25.064 14.1494C24.2145 15.0069 23.7897 16.0603 23.7897 17.3588C23.7897 18.5102 24.1841 19.4412 24.973 20.2252C26.0046 21.2296 28.4621 22.2341 32.3457 23.3856C36.2596 24.537 39.1419 25.7865 40.9927 27.0115C42.8738 28.2119 44.3604 29.7799 45.392 31.7643C46.4539 33.6997 47 36.0517 47 38.8691C47 41.4415 46.3629 43.9159 45.0886 46.3413C43.8447 48.7912 42.0546 50.7757 39.7184 52.1966C37.4125 53.6176 34.5302 54.426 31.0714 54.4995C26.0652 54.3526 22.1817 52.5886 19.5117 49.4527C16.8114 46.4148 15.2034 42.3969 14.6876 37.3256Z" fill="#1EAB5F"/>
<defs>
<filter id="filter0_i_1_30" x="0" y="0.5" width="39.1812" height="48.6013" filterUnits="userSpaceOnUse" color-interpolation-filters="sRGB">
<feFlood flood-opacity="0" result="BackgroundImageFix"/>
<feBlend mode="normal" in="SourceGraphic" in2="BackgroundImageFix" result="shape"/>
<feColorMatrix in="SourceAlpha" type="matrix" values="0 0 0 0 0 0 0 0 0 0 0 0 0 0 0 0 0 0 127 0" result="hardAlpha"/>
<feOffset dx="9.8063"/>
<feGaussianBlur stdDeviation="4.90315"/>
<feComposite in2="hardAlpha" operator="arithmetic" k2="-1" k3="1"/>
<feColorMatrix type="matrix" values="0 0 0 0 0 0 0 0 0 0 0 0 0 0 0 0 0 0 0.5 0"/>
<feBlend mode="normal" in2="shape" result="effect1_innerShadow_1_30"/>
</filter>
</defs>
</svg>
